<?xml version="1.0" encoding="iso-8859-1"?>
<!-- Generator: Adobe Illustrator 15.1.0, SVG Export Plug-In . SVG Version: 6.00 Build 0)  -->
<!DOCTYPE svg PUBLIC "-//W3C//DTD SVG 1.1//EN" "http://www.w3.org/Graphics/SVG/1.1/DTD/svg11.dtd">
<svg version="1.1" id="Layer_1" xmlns="http://www.w3.org/2000/svg" xmlns:xlink="http://www.w3.org/1999/xlink" x="0px" y="0px"
	 width="128px" height="128px" viewBox="0 0 128 128" style="enable-background:new 0 0 128 128;" xml:space="preserve">
<g>
	<circle style="fill:#88C5CC;" cx="64" cy="64" r="64"/>
	<path style="fill:#242424;" d="M19.527,110C31.043,121.136,46.715,128,64,128s32.958-6.864,44.473-18H19.527z"/>
	<path style="fill:#333333;" d="M106.307,112c0.736-0.65,1.459-1.316,2.166-2H19.527c0.707,0.684,1.43,1.35,2.167,2H106.307z"/>
	<g>
		<g>
			<defs>
				<circle id="SVGID_1_" cx="64" cy="64" r="64"/>
			</defs>
			<clipPath id="SVGID_2_">
				<use xlink:href="#SVGID_1_"  style="overflow:visible;"/>
			</clipPath>
			<g style="clip-path:url(#SVGID_2_);">
				<g>
					<rect x="-1" y="50" style="fill:#E6E6E6;" width="46" height="60"/>
					<path style="fill:#E78244;" d="M48,47c0-0.55-0.45-1-1-1H-3c-0.55,0-1,0.45-1,1v2c0,0.55,0.45,1,1,1h50c0.55,0,1-0.45,1-1V47z"
						/>
					<rect x="-1" y="50" style="fill:#BFBFBF;" width="46" height="1"/>
					<g>
						<g>
							<rect x="6" y="72" style="fill:#A4BECC;" width="12" height="16"/>
							<rect x="7" y="73" style="fill:#C2E2F2;" width="10" height="14"/>
						</g>
						<g>
							<rect x="26" y="72" style="fill:#A4BECC;" width="12" height="16"/>
							<rect x="27" y="73" style="fill:#C2E2F2;" width="10" height="14"/>
						</g>
					</g>
					<g>
						<g>
							<rect x="6" y="54" style="fill:#A4BECC;" width="12" height="16"/>
							<rect x="7" y="55" style="fill:#C2E2F2;" width="10" height="14"/>
						</g>
						<g>
							<rect x="26" y="54" style="fill:#A4BECC;" width="12" height="16"/>
							<rect x="27" y="55" style="fill:#C2E2F2;" width="10" height="14"/>
						</g>
					</g>
					<rect x="15" y="92" style="fill:#A4BECC;" width="14" height="18"/>
					<rect x="16" y="93" style="fill:#C2E2F2;" width="12" height="17"/>
					<path style="fill:#E78244;" d="M31,91c0,0.55-0.45,1-1,1H14c-0.55,0-1-0.45-1-1l0,0c0-0.55,0.45-1,1-1h16
						C30.55,90,31,90.45,31,91L31,91z"/>
				</g>
				<g>
					<rect x="83" y="50" style="fill:#E6E6E6;" width="46" height="60"/>
					<rect x="86" y="50" style="fill:#BFBFBF;" width="2" height="60"/>
					<path style="fill:#E78244;" d="M132,47c0-0.55-0.45-1-1-1H81c-0.55,0-1,0.45-1,1v2c0,0.55,0.45,1,1,1h50c0.55,0,1-0.45,1-1V47z
						"/>
					<rect x="83" y="50" style="fill:#BFBFBF;" width="46" height="1"/>
					<g>
						<g>
							<rect x="90" y="72" style="fill:#A4BECC;" width="12" height="16"/>
							<rect x="91" y="73" style="fill:#C2E2F2;" width="10" height="14"/>
						</g>
						<g>
							<rect x="110" y="72" style="fill:#A4BECC;" width="12" height="16"/>
							<rect x="111" y="73" style="fill:#C2E2F2;" width="10" height="14"/>
						</g>
					</g>
					<g>
						<g>
							<rect x="90" y="54" style="fill:#A4BECC;" width="12" height="16"/>
							<rect x="91" y="55" style="fill:#C2E2F2;" width="10" height="14"/>
						</g>
						<g>
							<rect x="110" y="54" style="fill:#A4BECC;" width="12" height="16"/>
							<rect x="111" y="55" style="fill:#C2E2F2;" width="10" height="14"/>
						</g>
					</g>
					<rect x="99" y="92" style="fill:#A4BECC;" width="14" height="18"/>
					<rect x="100" y="93" style="fill:#C2E2F2;" width="12" height="17"/>
					<path style="fill:#E78244;" d="M115,91c0,0.55-0.45,1-1,1H98c-0.55,0-1-0.45-1-1l0,0c0-0.55,0.45-1,1-1h16
						C114.55,90,115,90.45,115,91L115,91z"/>
				</g>
				<rect x="40" y="24" style="fill:#F5F5F5;" width="46" height="86"/>
				<rect x="84" y="24" style="fill:#E6E6E6;" width="2" height="86"/>
				<g>
					<g>
						<rect x="47" y="29" style="fill:#A4BECC;" width="12" height="16"/>
						<rect x="48" y="30" style="fill:#C2E2F2;" width="10" height="14"/>
					</g>
					<g>
						<rect x="67" y="29" style="fill:#A4BECC;" width="12" height="16"/>
						<rect x="68" y="30" style="fill:#C2E2F2;" width="10" height="14"/>
					</g>
				</g>
				<g>
					<g>
						<rect x="47" y="72" style="fill:#A4BECC;" width="12" height="16"/>
						<rect x="48" y="73" style="fill:#C2E2F2;" width="10" height="14"/>
					</g>
					<g>
						<rect x="67" y="72" style="fill:#A4BECC;" width="12" height="16"/>
						<rect x="68" y="73" style="fill:#C2E2F2;" width="10" height="14"/>
					</g>
				</g>
				<g>
					<g>
						<rect x="47" y="54" style="fill:#A4BECC;" width="12" height="16"/>
						<rect x="48" y="55" style="fill:#C2E2F2;" width="10" height="14"/>
					</g>
					<g>
						<rect x="67" y="54" style="fill:#A4BECC;" width="12" height="16"/>
						<rect x="68" y="55" style="fill:#C2E2F2;" width="10" height="14"/>
					</g>
				</g>
				<rect x="56" y="92" style="fill:#A4BECC;" width="14" height="18"/>
				<rect x="57" y="93" style="fill:#C2E2F2;" width="12" height="17"/>
				<path style="fill:#E78244;" d="M89,21c0-0.55-0.45-1-1-1H38c-0.55,0-1,0.45-1,1v2c0,0.55,0.45,1,1,1h50c0.55,0,1-0.45,1-1V21z"
					/>
				<rect x="40" y="24" style="fill:#E6E6E6;" width="46" height="1"/>
				<path style="fill:#E78244;" d="M72,91c0,0.55-0.45,1-1,1H55c-0.55,0-1-0.45-1-1l0,0c0-0.55,0.45-1,1-1h16
					C71.55,90,72,90.45,72,91L72,91z"/>
				<rect x="42" y="48" style="fill:#E6E6E6;" width="40" height="2"/>
			</g>
		</g>
	</g>
</g>
</svg>
