<?xml version="1.0" encoding="UTF-8" standalone="no"?>
<svg xmlns="http://www.w3.org/2000/svg" version="1.1" viewBox="0 0 256 256" width="256" height="256">
<path fill="#72a7cf" d="m56.254 58.475v2 6.7891h143.04v-8.7891zm0 19.156v2 6.7891h143.04v-8.7891zm0 18.994v2 6.7871h143.04v-8.7871zm0 19.154v2 6.7891h143.04v-8.7891zm0 18.912v2 6.7891h116.74v-8.7891zm-11.865-112.33c-12.73 0-22.693 9.3394-22.693 21.26v117.05c0.000001 14.213 8.48 22.711 22.693 22.711h59.225v50.092l50.936-50.076h57.062c13.792 0 22.693-8.9191 22.693-22.711v-117.06c0-12.123-9.7614-21.26-22.693-21.26h-167.22zm0 11.938v0.01563h167.22c5.3448 0 10.74 3.2032 10.74 9.3066v117.06c0 7.2163-3.5071 10.74-10.74 10.74h-61.953l-34.092 33.502v-33.518h-71.178c-7.6209 0-10.74-3.1024-10.74-10.74v-117.06c-0.000001-6.1035 5.3955-9.3066 10.74-9.3066z"/>
</svg>
